<svg xmlns="http://www.w3.org/2000/svg" data-name="color icons" viewBox="0 0 64 64"><circle cx="32" cy="32" r="30" fill="#fbf29d"/><path fill="#464d57" d="M32 62.5A30.5 30.5 0 017.214 14.222a.5.5 0 11.812.583 29.5 29.5 0 0046.61 36.114.5.5 0 01.766.642A30.443 30.443 0 0132 62.5zM57.693 48a.5.5 0 01-.427-.759 29.5 29.5 0 00-46.715-35.49.5.5 0 11-.726-.686A30.216 30.216 0 0132 1.5 30.507 30.507 0 0158.122 47.754.5.5 0 0157.693 48z"/><path fill="#c3e6fa" d="M23.8,32.619a7.267,7.267,0,0,1,4.664.05,10.921,10.921,0,0,0,7.088,0,7.257,7.257,0,0,1,4.663-.05c5.908,1.981,9.959,6.038,9.959,10.722,0,6.635-8.131,7.9-18.172,7.9s-18.172-1.263-18.172-7.9C13.828,38.657,17.887,34.6,23.8,32.619Z"/><path fill="#464d57" d="M32,51.739c-9.233,0-18.672-1-18.672-8.4,0-4.775,3.951-9.065,10.311-11.2h0a7.822,7.822,0,0,1,4.985.051,10.461,10.461,0,0,0,6.764,0,7.791,7.791,0,0,1,4.984-.05c6.353,2.129,10.3,6.419,10.3,11.2C50.672,50.741,41.233,51.739,32,51.739ZM23.957,33.093c-5.939,1.99-9.629,5.917-9.629,10.248,0,5.185,5.285,7.4,17.672,7.4s17.672-2.213,17.672-7.4c0-4.332-3.686-8.259-9.618-10.247a6.8,6.8,0,0,0-4.342.048,11.483,11.483,0,0,1-7.413,0,6.8,6.8,0,0,0-4.342-.049Z"/><ellipse cx="32.003" cy="21.404" fill="#ffdbab" rx="7.647" ry="8.643"/><path fill="#464d57" d="M32,30.546c-4.492,0-8.147-4.1-8.147-9.142S27.511,12.261,32,12.261s8.147,4.1,8.147,9.143S36.5,30.546,32,30.546Zm0-17.285c-3.941,0-7.147,3.653-7.147,8.143S28.062,29.546,32,29.546,39.15,25.894,39.15,21.4,35.944,13.261,32,13.261Z"/></svg>